Coordinates
version=1
nRows=21
nColumns=19
inDegrees=yes

Units are S.I. units (second, meters, Newtons, ...)
If the header above contains a line with 'inDegrees', this indicates whether rotational values are in degrees (yes) or radians (no).

endheader
time	pelvis_tilt	pelvis_list	pelvis_rotation	pelvis_tx	pelvis_ty	pelvis_tz	hip_flexion_r	hip_adduction_r	hip_rotation_r	knee_angle_r	knee_angle_r_beta	ankle_angle_r	hip_flexion_l	hip_adduction_l	hip_rotation_l	knee_angle_l	knee_angle_l_beta	ankle_angle_l
     11.30000000	     -5.23101537	    -10.87531207	     -6.12898443	      2.19606104	      0.98376466	      0.99766031	     24.55446406	     19.95979833	     -6.54075834	      5.67532106	      0.09905304	     -3.55731775	    -13.48998306	    -14.21632887	    -16.45655870	     70.09310351	      1.22335544	    -15.44879068
     11.30666667	     -4.43010384	    -11.69227697	     -6.83948372	      2.19545146	      0.97952050	      0.99764703	     23.90362359	     20.78862955	     -7.08998140	      8.32870921	      0.14536340	     -3.25663636	    -13.39171437	    -15.04144580	    -16.51467447	     73.66675225	      1.28572738	    -14.88183035
     11.31333333	     -4.70328392	    -12.03087617	     -7.74831417	      2.19423605	      0.97372406	      0.99794338	     24.93102318	     21.11394222	     -7.93624864	     12.12036620	      0.21154030	     -2.55401478	    -11.81561418	    -15.46579796	    -16.24028414	     77.49354123	      1.35251744	    -14.19802602
     11.32000000	     -4.74999694	    -12.46319150	     -8.56344666	      2.19296071	      0.96799450	      0.99798207	     25.67885224	     21.44827304	     -8.65905286	     15.97876500	      0.27888206	     -1.68401676	    -10.42931496	    -16.00485879	    -15.92715277	     81.24481082	      1.41798945	    -13.48254332
     11.32666667	     -4.92253013	    -12.80426454	     -9.35638668	      2.19148929	      0.96198740	      0.99791979	     26.61320035	     21.66013372	     -9.29070680	     20.01784181	      0.34937725	     -0.57099273	     -8.77018303	    -16.51016767	    -15.50093585	     84.97498478	      1.48309327	    -12.74772851
     11.33333333	     -5.07910827	    -13.01472951	    -10.09636080	      2.18980896	      0.95599046	      0.99772313	     27.53874312	     21.71909583	     -9.78096260	     24.12603809	      0.42107880	      0.85408046	     -6.97297373	    -16.88689850	    -14.94038486	     88.61858898	      1.54668616	    -12.00371922
     11.34000000	     -5.30320249	    -13.10644960	    -10.77473686	      2.18796392	      0.95000833	      0.99739597	     28.48998999	     21.65976798	    -10.14246888	     28.16780693	      0.49162097	      2.52816340	     -4.92540079	    -17.16546685	    -14.21682555	     92.17756725	      1.60880205	    -11.29425293
     11.34666667	     -5.56029143	    -13.09945757	    -11.38376282	      2.18598891	      0.94418134	      0.99694088	     29.37100356	     21.52086239	    -10.35236211	     32.02468683	      0.55893623	      4.44471025	     -2.67994279	    -17.39290297	    -13.39176446	     95.61312320	      1.66876381	    -10.61993784
     11.35333333	     -5.84181524	    -13.03032674	    -11.92840495	      2.18384557	      0.93864829	      0.99633949	     30.12178384	     21.34866576	    -10.41309868	     35.58787994	      0.62112568	      6.44352959	     -0.24357759	    -17.57583810	    -12.45115401	     98.90538827	      1.72622467	     -9.96002169
     11.36000000	     -6.22583536	    -12.89798892	    -12.41000106	      2.18159502	      0.93338433	      0.99565176	     30.78623399	     21.16132313	    -10.33858722	     38.78363129	      0.67690206	      8.57538043	      2.46898071	    -17.75069967	    -11.40043810	    102.04052713	      1.78094317	     -9.35318785
     11.36666667	     -6.58035115	    -12.68568909	    -12.81821498	      2.17923416	      0.92863267	      0.99482085	     31.19770456	     20.92704392	    -10.08102001	     41.57625822	      0.72564260	     10.77544662	      5.31362833	    -17.83787720	    -10.26986927	    104.95865294	      1.83187407	     -8.79011997
     11.37333333	     -6.76378015	    -12.47283334	    -13.15717364	      2.17685182	      0.92462625	      0.99386516	     31.15468098	     20.70519395	     -9.63518497	     43.91019524	      0.76637748	     12.98164510	      8.06577776	    -17.86672358	     -9.10948883	    107.59830745	      1.87794473	     -8.16994624
     11.38000000	     -7.31774461	    -12.13792511	    -13.47181708	      2.17440109	      0.92071369	      0.99294222	     31.29389025	     20.44872096	     -9.10592928	     45.82407255	      0.79978094	     15.09125588	     11.40954509	    -17.90429352	     -7.87101918	    110.05258088	      1.92077989	     -7.72800146
     11.38666667	     -7.64964646	    -11.81884459	    -13.68249508	      2.17208059	      0.91769718	      0.99190585	     30.90386280	     20.19227861	     -8.40695521	     47.24447454	      0.82457163	     17.11558685	     14.56735086	    -17.85209185	     -6.61069351	    112.16314805	      1.95761623	     -7.14205029
     11.39333333	     -7.83846389	    -11.52235605	    -13.79713130	      2.16990752	      0.91545541	      0.99085164	     30.10285662	     19.90970982	     -7.66927751	     48.23607501	      0.84187833	     18.99295211	     17.60754804	    -17.77856826	     -5.35305104	    113.93047373	      1.98846188	     -6.54807137
     11.40000000	     -8.07163607	    -11.19630028	    -13.94143580	      2.16796134	      0.91382613	      0.98999082	     29.08685956	     19.66217883	     -6.74444186	     48.80221126	      0.85175927	     20.66665657	     20.67922397	    -17.71061256	     -4.21192463	    115.34656615	      2.01317736	     -5.98582590
     11.40666667	     -7.84056181	    -10.96533367	    -14.01309140	      2.16644514	      0.91341939	      0.98919136	     27.28967001	     19.41232381	     -5.69925593	     48.94904425	      0.85432199	     22.13567415	     23.09792853	    -17.64821028	     -3.24718503	    116.31415022	      2.03006489	     -5.28261254
     11.41333333	     -7.62665243	    -10.63224287	    -14.06422064	      2.16522446	      0.91372344	      0.98858350	     25.32572628	     19.08339843	     -4.48905935	     48.76059964	      0.85103301	     23.25055586	     25.48988552	    -17.47607228	     -2.40993980	    116.89164962	      2.04014415	     -4.59990697
     11.42000000	     -7.54854920	    -10.24981068	    -14.02186827	      2.16441694	      0.91446909	      0.98810469	     23.34172740	     18.64241797	     -3.41685151	     48.24196802	      0.84198118	     24.23131140	     27.97615130	    -17.25031284	     -1.60850854	    117.12245303	      2.04417243	     -3.86777517
     11.42666667	     -7.55916064	     -9.97467753	    -13.71109557	      2.16398667	      0.91557330	      0.98749724	     21.33619396	     18.19509325	     -2.66689167	     47.42953628	      0.82780157	     24.98018686	     30.57043505	    -17.01116522	     -0.58236302	    117.07724214	      2.04338335	     -3.14665780
     11.43333333	     -7.59789282	     -9.45116665	    -13.62036066	      2.16388127	      0.91740900	      0.98729586	     19.26868484	     17.58900457	     -1.57104757	     46.44837931	      0.81067715	     25.24098406	     32.93449479	    -16.61475721	     -0.08661173	    116.58280159	      2.03475374	     -2.42961115
